<?xml version="1.0" standalone="no"?>
<!DOCTYPE svg PUBLIC "-//W3C//DTD SVG 20010904//EN"
 "http://www.w3.org/TR/2001/REC-SVG-20010904/DTD/svg10.dtd">
<svg version="1.0" xmlns="http://www.w3.org/2000/svg"
 width="400.000000pt" height="400.000000pt" viewBox="0 0 400.000000 400.000000"
 preserveAspectRatio="xMidYMid meet">
<metadata>
Created by potrace 1.11, written by Peter Selinger 2001-2013
</metadata>
<g transform="translate(0.000000,400.000000) scale(0.100000,-0.100000)"
fill="#000000" stroke="none">
<path d="M1378 2823 c-67 -235 -235 -818 -284 -988 -74 -251 -166 -572 -179
-620 -8 -27 -23 -78 -34 -113 -14 -45 -16 -64 -8 -67 34 -11 155 -44 171 -47
15 -2 22 6 31 42 7 25 65 227 130 450 252 871 297 1027 314 1090 10 36 39 136
65 223 25 88 46 162 46 166 0 6 -173 61 -191 61 -2 0 -30 -89 -61 -197z"/>
<path d="M2030 2615 c-1 -27 -2 -302 -3 -610 -3 -617 -1 -598 -66 -663 -55
-54 -168 -71 -255 -38 -75 29 -111 102 -129 265 -2 11 -20 14 -84 13 -46 0
-88 -1 -94 -1 -31 -3 10 -239 56 -316 61 -105 181 -164 339 -167 253 -4 405
124 431 362 5 49 10 977 6 1175 l-1 31 -100 -1 -100 0 0 -50z"/>
<path d="M2269 2618 c-1 -61 -1 -103 0 -125 1 -16 17 -18 184 -18 167 -1 185
-3 223 -23 82 -43 125 -118 129 -224 4 -113 -45 -207 -129 -250 -69 -36 -119
-44 -261 -47 -77 -1 -141 -4 -143 -5 -3 -3 -5 -93 -3 -157 l1 -36 148 3 c238
4 376 45 470 142 175 179 178 503 8 673 -87 87 -178 110 -443 113 l-183 2 -1
-48z"/>
<path d="M619 2147 c-85 -84 -160 -161 -168 -171 -13 -16 1 -32 155 -187 l169
-169 42 42 c24 23 43 46 43 51 0 5 -54 64 -121 130 l-120 120 124 126 123 126
-44 43 c-24 23 -45 42 -46 42 -2 0 -73 -69 -157 -153z"/>
<path d="M3181 2255 l-44 -44 125 -125 124 -125 -124 -124 -123 -123 46 -48
47 -47 171 171 171 171 -170 170 c-93 93 -171 169 -174 169 -3 0 -25 -20 -49
-45z"/>
</g>
</svg>
